<svg width="20" height="18" viewBox="0 0 20 18" fill="none" xmlns="http://www.w3.org/2000/svg">
<path d="M16.8879 6.976C17.0919 6.312 17.1999 5.64 17.1999 4.976C17.1999 2.404 15.2279 0.311996 12.7999 0.311996C11.1479 0.311996 9.6319 1.212 8.7999 2.62C7.9679 1.212 6.4519 0.311996 4.7999 0.311996C2.3719 0.311996 0.399902 2.404 0.399902 4.976C0.399902 10.84 8.2759 15.104 8.6119 15.284C8.6719 15.316 8.7359 15.332 8.7999 15.332C8.8639 15.332 8.9279 15.316 8.9879 15.284C8.9999 15.276 9.2879 15.124 9.7439 14.84C11.3439 16.52 13.2719 17.568 13.4119 17.64C13.4719 17.672 13.5359 17.688 13.5999 17.688C13.6639 17.688 13.7279 17.672 13.7879 17.64C14.0239 17.516 19.5999 14.492 19.5999 10.32C19.5999 8.628 18.4199 7.228 16.8879 6.976ZM8.7999 14.472C7.6119 13.792 1.1999 9.884 1.1999 4.976C1.1999 2.844 2.8159 1.112 4.7999 1.112C6.1399 1.112 7.7799 1.908 8.4239 3.692C8.4799 3.852 8.6319 3.956 8.7999 3.956C8.9679 3.956 9.1199 3.852 9.1759 3.692C9.8199 1.908 11.4599 1.112 12.7999 1.112C14.7839 1.112 16.3999 2.844 16.3999 4.976C16.3999 5.632 16.2799 6.296 16.0519 6.956C15.0559 7.06 14.1559 7.612 13.5999 8.444C12.9799 7.516 11.9319 6.932 10.7999 6.932C9.0359 6.932 7.5999 8.452 7.5999 10.32C7.5999 11.796 8.2959 13.124 9.2039 14.232C9.0399 14.332 8.8999 14.416 8.7999 14.472ZM13.5999 16.828C12.6439 16.272 8.3999 13.616 8.3999 10.32C8.3999 8.892 9.4759 7.732 10.7999 7.732C11.6959 7.732 12.7919 8.264 13.2239 9.46C13.2799 9.62 13.4319 9.724 13.5999 9.724C13.7679 9.724 13.9199 9.62 13.9759 9.46C14.4079 8.268 15.5039 7.732 16.3999 7.732C17.7239 7.732 18.7999 8.892 18.7999 10.32C18.7999 13.616 14.5559 16.272 13.5999 16.828Z" fill="black"/>
</svg>
