<svg width="12" height="20" viewBox="0 0 12 20" fill="none" xmlns="http://www.w3.org/2000/svg">
<path d="M0.21582 9.86801C0.216389 10.2892 0.383696 10.6929 0.681158 10.9911C0.978619 11.2892 1.38203 11.4574 1.80318 11.459C1.69178 11.6413 1.63197 11.8504 1.63014 12.064V12.28C1.62947 12.5468 1.7202 12.8058 1.88723 13.0138C2.05426 13.2218 2.28751 13.3664 2.54814 13.4234L4.34382 18.9206C4.41111 19.1241 4.54114 19.3011 4.71524 19.4261C4.88935 19.5511 5.09859 19.6178 5.31294 19.6166H6.68478C6.89913 19.6178 7.10837 19.5511 7.28248 19.4261C7.45658 19.3011 7.58661 19.1241 7.6539 18.9206L9.45078 13.4224C9.71143 13.3656 9.94477 13.2213 10.112 13.0135C10.2792 12.8056 10.3701 12.5468 10.3697 12.28V12.064C10.3681 11.8502 10.3078 11.6409 10.1955 11.459C10.6168 11.4578 11.0205 11.2897 11.3182 10.9915C11.6159 10.6933 11.7833 10.2893 11.7838 9.86801V9.77441C11.7834 9.50837 11.7034 9.24854 11.5542 9.02832C11.4049 8.80811 11.1932 8.63757 10.9462 8.53865C11.1514 8.22332 11.2727 7.86084 11.2986 7.48554C11.3245 7.11024 11.2542 6.73454 11.0943 6.39401C10.873 5.92217 10.491 5.5445 10.0167 5.32865C10.076 5.05371 10.1059 4.77326 10.106 4.49201C10.106 3.40292 9.67334 2.35844 8.90324 1.58834C8.13314 0.818242 7.08867 0.385605 5.99958 0.385605C4.9105 0.385605 3.86602 0.818242 3.09592 1.58834C2.32582 2.35844 1.89318 3.40292 1.89318 4.49201C1.89322 4.77359 1.92323 5.05437 1.9827 5.32961C1.69446 5.46202 1.43811 5.65494 1.23106 5.89525C1.02401 6.13555 0.871118 6.41761 0.782774 6.72226C0.69443 7.02691 0.672705 7.34701 0.719074 7.6608C0.765443 7.97459 0.87882 8.27473 1.0515 8.5408C0.805279 8.63995 0.594233 8.81029 0.445364 9.03005C0.296495 9.2498 0.216572 9.50898 0.21582 9.77441V9.86801ZM7.10718 18.742C7.07836 18.8305 7.02183 18.9075 6.94594 18.9614C6.87005 19.0153 6.77883 19.0434 6.68574 19.0415H5.3139C5.22098 19.0425 5.13014 19.0141 5.05441 18.9602C4.97869 18.9063 4.92199 18.8299 4.89246 18.7418L3.1659 13.4594H8.83374L7.10718 18.742ZM9.79374 12.28C9.79466 12.4345 9.73548 12.5832 9.6287 12.6948C9.52193 12.8065 9.37593 12.8722 9.22158 12.8781C9.21798 12.8781 9.21438 12.8793 9.21078 12.8795H9.20526C9.19479 12.8802 9.18438 12.8815 9.17406 12.8834H2.82558C2.81534 12.8816 2.805 12.8805 2.79462 12.88H2.78886C2.78526 12.88 2.78166 12.88 2.77806 12.8786C2.62363 12.8726 2.47756 12.8069 2.37077 12.6952C2.26398 12.5834 2.20485 12.4345 2.2059 12.28V12.064C2.20559 11.9815 2.22231 11.8998 2.25502 11.824C2.28772 11.7482 2.33571 11.68 2.39598 11.6236C2.50844 11.5188 2.65629 11.4604 2.80998 11.4599H9.18966C9.26563 11.4593 9.34099 11.4736 9.41138 11.5022C9.48177 11.5308 9.54582 11.573 9.59982 11.6265C9.66104 11.6817 9.70992 11.7492 9.74325 11.8246C9.77659 11.9 9.79363 11.9816 9.79326 12.064L9.79374 12.28ZM6.00222 0.959205C6.93821 0.960921 7.8353 1.33383 8.49669 1.99612C9.15809 2.65842 9.52978 3.55602 9.53022 4.49201C9.5302 4.71423 9.5085 4.93592 9.46542 5.15392C9.45318 5.15176 9.43974 5.15104 9.42726 5.14936C9.41118 5.14697 9.39438 5.14553 9.37782 5.14361C9.28227 5.13181 9.1861 5.12572 9.08982 5.12537C9.04877 5.12463 9.00773 5.12752 8.96718 5.13401C8.56056 5.1495 8.16733 5.28347 7.83582 5.51944C7.59289 5.68133 7.38568 5.89124 7.22694 6.13625C6.86276 5.89487 6.43553 5.76614 5.99862 5.76614C5.56171 5.76614 5.13448 5.89487 4.7703 6.13625C4.56629 5.82921 4.2904 5.57663 3.96658 5.40046C3.64277 5.22429 3.28083 5.12985 2.91222 5.12537C2.81739 5.12575 2.72267 5.13168 2.62854 5.14313C2.61078 5.14529 2.59254 5.14697 2.57526 5.14961C2.55798 5.15225 2.54694 5.15225 2.53326 5.15465C2.48998 4.93642 2.4682 4.71448 2.46822 4.49201C2.4693 3.55517 2.84202 2.65704 3.50457 1.99471C4.16712 1.33238 5.06539 0.959967 6.00222 0.959205ZM2.41038 5.77912C2.42022 5.776 2.4291 5.77049 2.4387 5.76641L2.3571 5.49592L2.4699 5.75224L2.4723 5.75753C2.70458 5.69557 2.94759 5.6851 3.18434 5.72685C3.42108 5.76859 3.64586 5.86155 3.84294 5.99921C4.09714 6.16785 4.29632 6.40733 4.41582 6.68801C4.43411 6.73051 4.46238 6.76797 4.49822 6.79723C4.53406 6.82649 4.57643 6.84669 4.62173 6.85611C4.66703 6.86552 4.71394 6.86389 4.75847 6.85134C4.80301 6.83879 4.84386 6.81569 4.87758 6.78401C5.18237 6.49946 5.58381 6.3412 6.00078 6.3412C6.41775 6.3412 6.81919 6.49946 7.12398 6.78401C7.14777 6.80567 7.17514 6.82304 7.20486 6.83537C7.21182 6.83849 7.21878 6.84161 7.22598 6.84425C7.2552 6.85476 7.2859 6.86059 7.31694 6.86153H7.32078C7.37707 6.86135 7.43207 6.84469 7.47899 6.81359C7.52591 6.7825 7.56269 6.73834 7.58478 6.68657C7.70561 6.40264 7.90736 6.16057 8.16486 5.99057C8.41314 5.81325 8.70875 5.71421 9.01374 5.70617C9.03199 5.70561 9.05015 5.70336 9.06798 5.69945H9.09198C9.23785 5.69708 9.38331 5.7155 9.52398 5.75417L9.55182 5.76185C9.56427 5.76781 9.57709 5.77294 9.59022 5.7772C9.8048 5.84432 10.0031 5.95532 10.1725 6.10315C10.3419 6.25098 10.4787 6.43241 10.5742 6.63593C10.6763 6.85375 10.7292 7.09136 10.7293 7.33193C10.7312 7.67102 10.6268 8.00219 10.4307 8.27887C10.2347 8.55555 9.95686 8.76382 9.6363 8.87441C9.46378 8.94478 9.27875 8.97932 9.09246 8.97593C8.6953 8.97689 8.31178 8.83107 8.01558 8.56649C7.99785 8.54909 7.97883 8.53304 7.9587 8.51849C7.89537 8.47245 7.8166 8.45291 7.7391 8.46401C7.69359 8.47067 7.65017 8.48751 7.61207 8.51328C7.57397 8.53904 7.54216 8.57306 7.51902 8.61281C7.51326 8.62241 7.50726 8.63345 7.5015 8.64185C7.48826 8.65828 7.47691 8.67615 7.46766 8.69513C7.35677 8.92416 7.19353 9.12389 6.99116 9.27815C6.78878 9.43242 6.55293 9.53689 6.3027 9.58313C6.29364 9.58464 6.28467 9.58664 6.27582 9.58912C6.18659 9.60934 6.09505 9.61742 6.00366 9.61313C5.69535 9.61414 5.39306 9.52779 5.1318 9.36409C4.87054 9.2004 4.66099 8.96604 4.52742 8.68817C4.51937 8.67129 4.50973 8.65521 4.49862 8.64017L4.49646 8.6356C4.48854 8.62001 4.48038 8.60441 4.47246 8.59025C4.45099 8.55458 4.42205 8.52399 4.38763 8.50059C4.3532 8.47719 4.31411 8.46152 4.27305 8.45468C4.23199 8.44784 4.18994 8.44998 4.14978 8.46095C4.10963 8.47192 4.07233 8.49147 4.04046 8.51825C4.02167 8.53209 4.00401 8.54742 3.98766 8.56409C3.69418 8.83188 3.31071 8.9795 2.91342 8.97761C2.52235 8.97869 2.14379 8.83984 1.84616 8.58615C1.54854 8.33246 1.35148 7.98068 1.29061 7.59437C1.22974 7.20806 1.30907 6.81273 1.51426 6.47981C1.71945 6.14689 2.03697 5.89835 2.40942 5.77912H2.41038ZM0.79182 9.77441C0.791138 9.58697 0.860644 9.40606 0.986657 9.2673C1.11267 9.12854 1.28606 9.04197 1.4727 9.02465C1.4847 9.03473 1.4967 9.04361 1.5099 9.05369C1.53246 9.07193 1.55526 9.08969 1.57854 9.10721C1.61054 9.13089 1.64254 9.15385 1.67454 9.17609C1.69854 9.19217 1.72254 9.20777 1.74654 9.22408C1.7799 9.24473 1.81398 9.26417 1.8483 9.28289C1.8723 9.29681 1.8987 9.31049 1.92462 9.32321C1.95966 9.34073 1.99662 9.35657 2.03166 9.37121C2.05806 9.38249 2.08398 9.39401 2.11062 9.40433C2.14782 9.41873 2.1855 9.43097 2.22342 9.44345C2.25006 9.45209 2.27646 9.46121 2.30358 9.46889C2.34318 9.48017 2.38374 9.48905 2.42358 9.49817C2.4495 9.50393 2.47518 9.51064 2.50158 9.51545C2.54646 9.52385 2.59182 9.52937 2.63742 9.53513C2.65998 9.53777 2.68206 9.54185 2.70486 9.54401C2.77326 9.55025 2.84214 9.55385 2.91174 9.55385C3.34902 9.55418 3.77627 9.42289 4.1379 9.17704C4.33787 9.48969 4.61365 9.74669 4.93961 9.92415C5.26556 10.1016 5.6311 10.1937 6.00222 10.192C6.14167 10.196 6.28104 10.1816 6.4167 10.149C6.71033 10.0931 6.98948 9.97794 7.23707 9.81049C7.48466 9.64303 7.6955 9.42684 7.8567 9.17513C8.22067 9.42249 8.65071 9.55446 9.09078 9.55385C9.34861 9.55798 9.6046 9.50998 9.84342 9.41273C9.91086 9.38873 9.97638 9.36161 10.0407 9.33161C10.0623 9.32177 10.0827 9.31001 10.1041 9.29921C10.1463 9.27785 10.1883 9.25577 10.2293 9.23153C10.2533 9.21737 10.2757 9.20224 10.2985 9.18737C10.3359 9.16337 10.3726 9.13937 10.4084 9.11177C10.4309 9.09521 10.453 9.07793 10.4749 9.06017C10.4912 9.0472 10.5085 9.03617 10.5245 9.02201C10.7115 9.04024 10.885 9.12736 11.0113 9.26642C11.1376 9.40549 11.2076 9.58655 11.2078 9.77441V9.86801C11.2075 10.1372 11.1004 10.3952 10.9101 10.5855C10.7198 10.7758 10.4618 10.8829 10.1926 10.8832H1.80702C1.53787 10.8829 1.27983 10.7758 1.08952 10.5855C0.899198 10.3952 0.792138 10.1372 0.79182 9.86801V9.77441Z" fill="black"/>
</svg>
