<svg width="24" height="20" viewBox="0 0 24 20" fill="none" xmlns="http://www.w3.org/2000/svg">
<path d="M23.2757 2.39947C22.4101 2.77916 21.4878 3.03083 20.5262 3.15302C21.5155 2.5624 22.2705 1.63429 22.6254 0.515599C21.7031 1.06549 20.6848 1.4539 19.5996 1.67065C18.7238 0.738172 17.4757 0.160645 16.114 0.160645C13.4723 0.160645 11.3454 2.30492 11.3454 4.93361C11.3454 5.31184 11.3774 5.67552 11.456 6.02175C7.48895 5.82827 3.97869 3.92694 1.62057 1.03057C1.20888 1.74485 0.967395 2.5624 0.967395 3.44251C0.967395 5.09509 1.81841 6.56 3.08694 7.40811C2.32029 7.39356 1.5682 7.17099 0.931027 6.8204C0.931027 6.83494 0.931027 6.85386 0.931027 6.87277C0.931027 9.19161 2.58505 11.1177 4.75406 11.5614C4.36564 11.6676 3.94232 11.7185 3.50299 11.7185C3.1975 11.7185 2.88909 11.701 2.5996 11.637C3.21786 13.5267 4.97227 14.916 7.05835 14.9611C5.43487 16.231 3.37352 16.9962 1.14196 16.9962C0.750641 16.9962 0.37532 16.9788 0 16.9308C2.11372 18.2938 4.61877 19.0721 7.3202 19.0721C16.1009 19.0721 20.9016 11.7985 20.9016 5.49368C20.9016 5.28275 20.8943 5.07909 20.8841 4.87688C21.8311 4.20479 22.6269 3.36541 23.2757 2.39947Z" fill="white"/>
</svg>
